<?xml version="1.0" standalone="no"?><!DOCTYPE svg PUBLIC "-//W3C//DTD SVG 1.1//EN" "http://www.w3.org/Graphics/SVG/1.1/DTD/svg11.dtd"><svg t="1646322086772" class="icon" viewBox="0 0 1024 1024" version="1.1" xmlns="http://www.w3.org/2000/svg" p-id="11104" xmlns:xlink="http://www.w3.org/1999/xlink" width="80" height="80"><defs><style type="text/css"></style></defs><path d="M912.554667 457.898667v9.045333a58.197333 58.197333 0 0 1-44.544 55.466667 94.378667 94.378667 0 0 0-58.538667 141.482666 58.709333 58.709333 0 0 1-7.338667 70.826667l-12.629333 12.629333a58.368 58.368 0 0 1-70.656 7.850667 94.72 94.72 0 0 0-141.653333 58.538667 58.197333 58.197333 0 0 1-55.466667 44.544h-18.773333a58.197333 58.197333 0 0 1-55.466667-44.544 94.72 94.72 0 0 0-141.653333-58.538667 58.368 58.368 0 0 1-70.656-7.850667l-13.312-12.629333a58.709333 58.709333 0 0 1-7.850667-70.826667 94.378667 94.378667 0 0 0-58.538667-141.482666 58.197333 58.197333 0 0 1-44.544-55.466667v-9.045333-9.045334a58.197333 58.197333 0 0 1 44.544-55.466666 94.378667 94.378667 0 0 0 58.538667-141.482667 58.538667 58.538667 0 0 1 7.850667-70.826667l12.629333-12.629333a58.368 58.368 0 0 1 70.656-7.850667A94.378667 94.378667 0 0 0 447.488 102.4a58.197333 58.197333 0 0 1 55.466667-44.544h18.090666A58.197333 58.197333 0 0 1 576.512 102.4a94.378667 94.378667 0 0 0 141.653333 58.538667 58.368 58.368 0 0 1 70.656 7.850666l12.629334 12.629334a58.538667 58.538667 0 0 1 7.850666 70.826666 94.378667 94.378667 0 0 0 58.538667 141.482667 58.197333 58.197333 0 0 1 44.544 55.466667c0.170667 2.730667 0.170667 5.632 0.170667 8.704z" fill="#FFEFB0" p-id="11105"></path><path d="M771.584 457.898667c0-148.821333-125.269333-249.685333-276.138667-240.298667-129.706667 8.021333-235.008 95.061333-242.517333 224.768a258.730667 258.730667 0 0 0 85.333333 208.042667A249.344 249.344 0 0 1 418.645333 836.266667h186.709334a256 256 0 0 1 82.944-187.733334 258.901333 258.901333 0 0 0 83.285333-190.634666z" fill="#FFC670" p-id="11106"></path><path d="M281.6 505.344a256 256 0 0 1 473.088-136.533333C715.776 270.848 614.4 210.261333 494.933333 217.6c-129.706667 8.021333-235.008 95.061333-242.517333 224.768A257.706667 257.706667 0 0 0 307.2 616.96a254.805333 254.805333 0 0 1-25.6-111.616z" fill="#FFE88A" p-id="11107"></path><path d="M512 691.541333a296.618667 296.618667 0 0 1-221.866667-100.352 261.973333 261.973333 0 0 0 48.469334 59.221334A249.344 249.344 0 0 1 418.645333 836.266667h186.709334a256 256 0 0 1 82.944-187.733334 260.949333 260.949333 0 0 0 46.421333-57.685333A296.106667 296.106667 0 0 1 512 691.541333z" fill="#FF9A42" p-id="11108"></path><path d="M597.333333 812.032a91.989333 91.989333 0 0 1 8.533334 38.741333 93.354667 93.354667 0 1 1-186.709334 0 91.989333 91.989333 0 0 1 8.533334-38.741333z" fill="#EDF4FF" p-id="11109"></path><path d="M512 907.434667a93.184 93.184 0 0 1-91.477333-74.752 91.648 91.648 0 0 0-1.877334 18.090666 93.354667 93.354667 0 1 0 186.709334 0 91.648 91.648 0 0 0-1.877334-18.090666A93.184 93.184 0 0 1 512 907.434667z" fill="#D8E3F0" p-id="11110"></path><path d="M677.205333 835.584l-330.24 0 0-70.826667 330.24 0 0 70.826667Z" fill="#D8E3F0" p-id="11111"></path><path d="M594.261333 569.685333h-44.885333v-44.885333a38.570667 38.570667 0 0 1 38.570667-38.570667h6.144a38.570667 38.570667 0 0 1 38.570666 38.570667v6.144a38.570667 38.570667 0 0 1-38.4 38.741333zM429.568 486.229333h6.144a38.570667 38.570667 0 0 1 38.570667 38.570667v44.885333h-44.714667a38.570667 38.570667 0 0 1-38.570667-38.570666v-6.144a38.570667 38.570667 0 0 1 38.570667-38.741334z" fill="#FFDEAD" p-id="11112"></path><path d="M788.650667 474.965333A278.186667 278.186667 0 0 0 701.44 273.066667a276.48 276.48 0 1 0-375.466667 406.698666 225.792 225.792 0 0 1 57.856 85.333334h-4.949333a49.834667 49.834667 0 0 0-49.834667 49.834666V819.2a49.834667 49.834667 0 0 0 50.517334 51.2h22.869333a110.421333 110.421333 0 0 0 219.136 0h22.869333a49.834667 49.834667 0 0 0 49.834667-51.2v-5.12a49.834667 49.834667 0 0 0-49.834667-49.834667h-4.266666a238.933333 238.933333 0 0 1 59.733333-87.04 277.674667 277.674667 0 0 0 88.746667-202.24zM512 932.522667A76.288 76.288 0 0 1 437.077333 870.4h149.845334A76.288 76.288 0 0 1 512 932.522667z m132.437333-133.461334a15.701333 15.701333 0 0 1 15.701334 15.701334V819.2a15.701333 15.701333 0 0 1-15.701334 15.701333H379.562667a15.701333 15.701333 0 0 1-15.701334-15.701333v-5.12a15.701333 15.701333 0 0 1 15.701334-15.701333z m-187.733333-229.376h-27.136a21.674667 21.674667 0 0 1-21.504-21.504v-6.314666a21.674667 21.674667 0 0 1 21.504-21.504h6.314667a21.674667 21.674667 0 0 1 21.504 21.504z m34.133333 195.242667v-161.109333h40.96v161.109333z m112.128 0H566.613333v-161.109333h27.818667a55.637333 55.637333 0 0 0 55.637333-55.637334v-6.314666a55.637333 55.637333 0 0 0-55.637333-55.637334h-6.314667a55.808 55.808 0 0 0-55.637333 55.637334v27.818666h-40.96v-27.818666a55.808 55.808 0 0 0-55.637333-55.637334h-6.314667a55.637333 55.637333 0 0 0-55.637333 55.637334v6.314666a55.637333 55.637333 0 0 0 55.637333 55.637334h27.818667v161.109333h-36.522667a260.608 260.608 0 0 0-71.338667-110.08A241.493333 241.493333 0 0 1 269.994667 460.8a245.248 245.248 0 0 1 226.474666-227.84 242.688 242.688 0 0 1 258.048 242.005333 243.541333 243.541333 0 0 1-77.824 177.834667 275.968 275.968 0 0 0-73.045333 112.128zM566.613333 569.685333v-27.818666a21.674667 21.674667 0 0 1 21.504-21.504h6.314667a21.674667 21.674667 0 0 1 21.504 21.504v6.314666a21.674667 21.674667 0 0 1-21.504 21.504z" fill="#3D3D63" p-id="11113"></path><path d="M367.104 334.506667a206.506667 206.506667 0 0 0-47.445333 70.314666 17.066667 17.066667 0 0 0 9.216 22.186667 18.432 18.432 0 0 0 6.485333 1.365333 17.066667 17.066667 0 0 0 15.872-10.752A172.544 172.544 0 0 1 390.826667 358.4a17.066667 17.066667 0 0 0-23.722667-24.576zM444.757333 286.890667a192.170667 192.170667 0 0 0-23.722666 9.728 17.066667 17.066667 0 0 0 7.509333 32.426666 17.066667 17.066667 0 0 0 7.509333-1.706666 155.648 155.648 0 0 1 19.797334-8.192 17.066667 17.066667 0 0 0 10.581333-21.674667 17.066667 17.066667 0 0 0-21.674667-10.581333zM512 137.386667a17.066667 17.066667 0 0 0 17.066667-17.066667V74.410667a17.066667 17.066667 0 1 0-34.133334 0v45.909333a17.066667 17.066667 0 0 0 17.066667 17.066667zM249.173333 236.373333a17.066667 17.066667 0 0 0 23.893334-24.234666l-32.597334-32.426667a17.066667 17.066667 0 0 0-24.064 24.064zM157.354667 457.898667H111.445333a17.066667 17.066667 0 0 0 0 34.133333h45.909334a17.066667 17.066667 0 0 0 0-34.133333zM249.173333 713.557333l-32.426666 32.597334a17.066667 17.066667 0 0 0 24.064 24.064l32.256-32.426667a17.066667 17.066667 0 1 0-24.234667-24.234667zM774.826667 713.557333a17.066667 17.066667 0 1 0-23.893334 24.234667l32.597334 32.426667a17.066667 17.066667 0 0 0 24.064-24.064zM912.554667 457.898667h-45.909334a17.066667 17.066667 0 0 0 0 34.133333h45.909334a17.066667 17.066667 0 0 0 0-34.133333zM783.189333 179.712L750.933333 212.138667a17.066667 17.066667 0 1 0 24.234667 24.234666l32.426667-32.597333a17.066667 17.066667 0 0 0-24.064-24.064z" fill="#3D3D63" p-id="11114"></path></svg>