<?xml version="1.0" standalone="no"?><!DOCTYPE svg PUBLIC "-//W3C//DTD SVG 1.1//EN" "http://www.w3.org/Graphics/SVG/1.1/DTD/svg11.dtd"><svg t="1646322125793" class="icon" viewBox="0 0 1024 1024" version="1.1" xmlns="http://www.w3.org/2000/svg" p-id="11514" xmlns:xlink="http://www.w3.org/1999/xlink" width="80" height="80"><defs><style type="text/css"></style></defs><path d="M788.650667 474.965333A278.186667 278.186667 0 0 0 701.44 273.066667a276.48 276.48 0 1 0-375.466667 406.698666 225.792 225.792 0 0 1 57.856 85.333334h-4.949333a49.834667 49.834667 0 0 0-49.834667 49.834666V819.2a49.834667 49.834667 0 0 0 50.517334 51.2h22.869333a110.421333 110.421333 0 0 0 219.136 0h22.869333a49.834667 49.834667 0 0 0 49.834667-51.2v-5.12a49.834667 49.834667 0 0 0-49.834667-49.834667h-4.266666a238.933333 238.933333 0 0 1 59.733333-87.04 277.674667 277.674667 0 0 0 88.746667-202.24zM512 932.522667A76.288 76.288 0 0 1 437.077333 870.4h149.845334A76.288 76.288 0 0 1 512 932.522667z m132.437333-133.461334a15.701333 15.701333 0 0 1 15.701334 15.701334V819.2a15.701333 15.701333 0 0 1-15.701334 15.701333H379.562667a15.701333 15.701333 0 0 1-15.701334-15.701333v-5.12a15.701333 15.701333 0 0 1 15.701334-15.701333z m-187.733333-229.376h-27.136a21.674667 21.674667 0 0 1-21.504-21.504v-6.314666a21.674667 21.674667 0 0 1 21.504-21.504h6.314667a21.674667 21.674667 0 0 1 21.504 21.504z m34.133333 195.242667v-161.109333h40.96v161.109333z m112.128 0H566.613333v-161.109333h27.818667a55.637333 55.637333 0 0 0 55.637333-55.637334v-6.314666a55.637333 55.637333 0 0 0-55.637333-55.637334h-6.314667a55.808 55.808 0 0 0-55.637333 55.637334v27.818666h-40.96v-27.818666a55.808 55.808 0 0 0-55.637333-55.637334h-6.314667a55.637333 55.637333 0 0 0-55.637333 55.637334v6.314666a55.637333 55.637333 0 0 0 55.637333 55.637334h27.818667v161.109333h-36.522667a260.608 260.608 0 0 0-71.338667-110.08A241.493333 241.493333 0 0 1 269.994667 460.8a245.248 245.248 0 0 1 226.474666-227.84 242.688 242.688 0 0 1 258.048 242.005333 243.541333 243.541333 0 0 1-77.824 177.834667 275.968 275.968 0 0 0-73.045333 112.128zM566.613333 569.685333v-27.818666a21.674667 21.674667 0 0 1 21.504-21.504h6.314667a21.674667 21.674667 0 0 1 21.504 21.504v6.314666a21.674667 21.674667 0 0 1-21.504 21.504z" fill="#3D3D63" p-id="11515"></path><path d="M367.104 334.506667a206.506667 206.506667 0 0 0-47.445333 70.314666 17.066667 17.066667 0 0 0 9.216 22.186667 18.432 18.432 0 0 0 6.485333 1.365333 17.066667 17.066667 0 0 0 15.872-10.752A172.544 172.544 0 0 1 390.826667 358.4a17.066667 17.066667 0 0 0-23.722667-24.576zM444.757333 286.890667a192.170667 192.170667 0 0 0-23.722666 9.728 17.066667 17.066667 0 0 0 7.509333 32.426666 17.066667 17.066667 0 0 0 7.509333-1.706666 155.648 155.648 0 0 1 19.797334-8.192 17.066667 17.066667 0 0 0 10.581333-21.674667 17.066667 17.066667 0 0 0-21.674667-10.581333zM512 137.386667a17.066667 17.066667 0 0 0 17.066667-17.066667V74.410667a17.066667 17.066667 0 1 0-34.133334 0v45.909333a17.066667 17.066667 0 0 0 17.066667 17.066667zM249.173333 236.373333a17.066667 17.066667 0 0 0 23.893334-24.234666l-32.597334-32.426667a17.066667 17.066667 0 0 0-24.064 24.064zM157.354667 457.898667H111.445333a17.066667 17.066667 0 0 0 0 34.133333h45.909334a17.066667 17.066667 0 0 0 0-34.133333zM249.173333 713.557333l-32.426666 32.597334a17.066667 17.066667 0 0 0 24.064 24.064l32.256-32.426667a17.066667 17.066667 0 1 0-24.234667-24.234667zM774.826667 713.557333a17.066667 17.066667 0 1 0-23.893334 24.234667l32.597334 32.426667a17.066667 17.066667 0 0 0 24.064-24.064zM912.554667 457.898667h-45.909334a17.066667 17.066667 0 0 0 0 34.133333h45.909334a17.066667 17.066667 0 0 0 0-34.133333zM783.189333 179.712L750.933333 212.138667a17.066667 17.066667 0 1 0 24.234667 24.234666l32.426667-32.597333a17.066667 17.066667 0 0 0-24.064-24.064z" fill="#3D3D63" p-id="11516"></path></svg>